<svg xmlns="http://www.w3.org/2000/svg" width="54" height="78" fill="none"><path fill="#89CEEA" d="M52.87 38.72a6.05 6.05 0 1 1-12.1 0 6.05 6.05 0 0 1 12.1 0Z"/><path fill="#78C0DE" d="M46.82 32.67c-.8 0-1.57.16-2.27.44a6.05 6.05 0 0 1 0 11.22 6.04 6.04 0 0 0 8.32-5.6c0-3.35-2.71-6.06-6.05-6.06Z"/><path fill="#E8E1D5" d="M37.44 60.06V76.3H1.14V60.06a12.03 12.03 0 0 1 11.99-12.04h12.31a12.02 12.02 0 0 1 12 12.04Z"/><path fill="#D6CFC4" d="M28.46 48.4a11.67 11.67 0 0 0-3.02-.38h-4.53A12.02 12.02 0 0 1 32.9 60.06V76.3h4.54V60.06c0-5.6-3.82-10.31-8.98-11.65Z"/><path fill="#FF573D" d="m28.46 48.4-9.17 27.91-9.16-27.9a11.78 11.78 0 0 1 3-.39h12.31a12.02 12.02 0 0 1 3.02.39Z"/><path fill="#EBA28C" d="M26.13 48.02c.55 0 .95.52.81 1.05-.67 2.64-3.84 4.64-7.65 4.64-3.82 0-6.99-2-7.66-4.64a.84.84 0 0 1 .81-1.05h2.35V39.2h9v8.83h2.34Z"/><path fill="#C4BEB4" d="M19.29 76.31c.04-.4-3.87-25.12-4.53-29.28a.6.6 0 0 0-.68-.5l-6.28.9a.6.6 0 0 0-.52.56l-.56 8.21 2.64 1.6-.74 3.85L19.3 76.3Z"/><path fill="#C4BEB4" d="M19.29 76.31c-.05-.4 3.86-25.12 4.52-29.28a.6.6 0 0 1 .68-.5l6.28.9c.29.04.5.28.52.56l.56 8.21-2.64 1.6.74 3.85L19.29 76.3Z"/><path fill="#EBA28C" d="M8.24 24.35c0 2.26-1.64 4.09-3.66 4.09-2.02 0-3.3-2.1-3.3-4.35 0-2.67 1.28-3.82 3.3-3.82 2.02 0 3.66 1.83 3.66 4.08ZM30.33 24.35c0 2.26 1.64 4.09 3.66 4.09 2.02 0 3.3-2.1 3.3-4.35 0-2.67-1.28-3.82-3.3-3.82-2.02 0-3.66 1.83-3.66 4.08Z"/><path fill="#FCC19C" d="M5.97 29.6v-9.84c0-6.93 5.62-12.55 12.56-12.55h1.52c6.93 0 12.55 5.62 12.55 12.55v9.85a13.3 13.3 0 0 1-13.3 13.3h-.03a13.3 13.3 0 0 1-13.3-13.3Z"/><path fill="#EBA28C" d="M20.05 7.2h-1.52c-.52 0-1.02.04-1.51.1a12.55 12.55 0 0 1 11.04 12.46v9.85a13.3 13.3 0 0 1-11.04 13.1c.73.13 1.48.2 2.25.2h.03a13.3 13.3 0 0 0 13.3-13.3v-9.85c0-6.93-5.62-12.55-12.55-12.55Z"/><path fill="#633327" d="M5.97 24.24c0 .1.1.17.19.15.6-.13 2.52-.65 2.69-2.18.2-1.82 3.64-6.96 9.08-7.46 3.96-.37 5.89-2.45 6.64-3.55a.3.3 0 0 1 .55.1c.3 1.4 1.11 4.32 2.94 5.97 2.42 2.17 1.7 6.96 4.37 7.15.09 0 .17-.07.17-.16V20.5c0-.4.32-.73.72-.73h.07c.33 0 .63-.23.7-.56.33-1.38 1.03-5.09-.02-7.98-1.32-3.63-5.03-5.14-5.03-5.14s-1.25-4.95-8.96-4.95c-7.7 0-10.72 3.25-10.72 3.25S3.5 9.4 4 13.78c.34 2.96.47 4.88.51 5.83.02.38.34.68.73.68.4 0 .72.33.72.73v3.22Z"/><path fill="#572D22" d="M34.07 11.22c-1.32-3.63-5.03-5.14-5.03-5.14s-1.25-4.95-8.96-4.95a25 25 0 0 0-2.52.13c5.92.77 6.95 4.82 6.95 4.82s3.7 1.5 5.02 5.14c1.06 2.9.35 6.6.03 7.98a.7.7 0 0 1-.1.24c.87 2.24 1.01 4.84 2.97 4.98.09 0 .17-.07.17-.16V20.5c0-.4.32-.73.72-.73h.07c.33 0 .63-.23.7-.56.33-1.38 1.03-5.09-.02-7.98ZM13.4 14.75c-4.04.37-6.98 3.3-8.3 5.53l.15.01c.4 0 .72.33.72.73v3.22c0 .1.1.17.19.15.6-.13 2.52-.65 2.69-2.18.2-1.81 3.64-6.96 9.08-7.46 1.37-.13 2.5-.46 3.41-.89-2.48.36-3.99.52-7.95.89Z"/><path fill="#CEE8F2" d="M17.09 26.2a3.78 3.78 0 1 1-7.56 0 3.78 3.78 0 0 1 7.56 0ZM29.05 26.2a3.78 3.78 0 1 1-7.57 0 3.78 3.78 0 0 1 7.57 0Z"/><path fill="#000" d="M54 38.72a7.2 7.2 0 1 0-8.32 7.1v1.45a9.38 9.38 0 0 1-7.61 9.2 13.21 13.21 0 0 0-5.58-7.52l-.07-1.04a1.75 1.75 0 0 0-1.48-1.6l-2-.29a12.31 12.31 0 0 0 6.62-10.9v-5.88c1.7-.75 2.86-2.72 2.86-5.15 0-2.65-1.14-4.34-3.18-4.82.38-1.66 1-5.4-.1-8.44-1.2-3.28-4.05-5-5.19-5.58C29.35 3.8 27.1 0 20.08 0 12.43 0 9.05 3.08 8.58 3.55c-.58.5-6.25 5.58-5.7 10.37a99 99 0 0 1 .49 5.34C1.3 19.72.15 21.42.15 24.1c0 2.45 1.17 4.42 2.9 5.17v5.86c0 4.73 2.68 8.84 6.6 10.9l-2.01.29c-.81.12-1.44.8-1.5 1.6l-.06 1.04A13.22 13.22 0 0 0 0 60.05v7.71a1.13 1.13 0 0 0 2.27 0v-7.7c0-3.12 1.34-6.06 3.6-8.1l-.28 4.16c-.03.43.18.83.54 1.05l1.97 1.2-.59 3.06c-.06.31.01.63.2.88l9.35 12.87H2.26v-2.6a1.13 1.13 0 0 0-2.26 0v3.73c0 .63.5 1.14 1.13 1.14h36.3c.63 0 1.14-.51 1.14-1.14V60.06c0-.46-.02-.91-.07-1.36a11.65 11.65 0 0 0 9.45-11.43v-1.45a7.2 7.2 0 0 0 6.05-7.1ZM35.75 56.64H32.9c.06-.16.1-.34.08-.52l-.28-4.17c1.4 1.27 2.46 2.9 3.05 4.69Zm-5.08-1.05-1.66 1.01a9.33 9.33 0 0 1-5.22-2.16l1.06-6.71 5.34.77.48 7.1Zm-11.4-11.55h.03c1.15 0 2.27-.14 3.35-.4v1.51h-6.73v-1.5c1.08.25 2.2.4 3.35.4Zm-3.3 3.38h2.2c.03 1.85.48 3.6 1.28 5.15h-.16c-.88 0-1.75-.12-2.56-.35l-.76-4.8Zm5.87 4.78a9.31 9.31 0 0 1-1.4-4.78h2.16l-.76 4.78Zm-2.55 2.64c.54 0 1.07-.04 1.6-.1.15.18.3.35.47.52-.94 5.96-1.6 10.22-2.07 13.28l-2.18-13.9c.7.13 1.43.2 2.18.2Zm5.63-9.83v-2.1a14.5 14.5 0 0 0 8.37-9.78v1.99c0 4.97-3.63 9.1-8.37 9.9ZM36.15 24.1c0 1.58-.8 3.21-2.16 3.21l-.26-.01v-5.87l.26-.02c1.07 0 2.16.32 2.16 2.69ZM10.1 5.24l.1-.09c.02-.03 2.76-2.88 9.9-2.88 6.64 0 7.81 3.93 7.85 4.09.09.35.33.62.67.76.03.02 3.27 1.4 4.4 4.49.89 2.45.33 5.71.05 7.03-.9.13-1.6.9-1.6 1.85v1.46l-.36-1.13c-.44-1.5-.95-3.2-2.28-4.4-1.62-1.45-2.35-4.23-2.6-5.35a1.43 1.43 0 0 0-2.59-.51c-.68 1-2.35 2.74-5.8 3.06l-.15.01a1.13 1.13 0 1 0 .24 2.26l.11-.01c3.16-.3 5.17-1.57 6.4-2.75.5 1.63 1.38 3.64 2.87 4.98.86.77 1.25 2.09 1.63 3.36.44 1.49.98 3.3 2.53 3.89v4.25c0 6.7-5.45 12.16-12.16 12.16h-.03c-6.7 0-12.16-5.45-12.16-12.16v-4.3a5.2 5.2 0 0 0 1.59-.82 4.92 4.92 0 1 0 9.4 2.84h2.38a4.92 4.92 0 1 0 0-2.27H18.1a4.92 4.92 0 0 0-8.16-2.43l.05-.3c.1-.87 1.53-3.33 3.94-4.95a1.14 1.14 0 0 0-1.26-1.88c-2.8 1.88-4.75 4.88-4.94 6.58-.03.31-.29.56-.61.75v-1.81c0-.54-.23-1.02-.59-1.36l-.04-.03-.03-.03a1.84 1.84 0 0 0-.81-.4c-.06-1.01-.2-2.86-.5-5.54-.36-3.1 3.45-7.13 4.95-8.42Zm.57 20.96a2.65 2.65 0 1 1 5.3 0 2.65 2.65 0 0 1-5.3 0Zm11.96 0a2.65 2.65 0 1 1 5.3 0 2.65 2.65 0 0 1-5.3 0ZM4.58 21.4l.26.02v5.87a2.2 2.2 0 0 1-.26.01c-1.35 0-2.16-1.63-2.16-3.21 0-2.37 1.1-2.69 2.16-2.69Zm.73 13.72v-1.85a14.5 14.5 0 0 0 8.35 9.63V45a10.05 10.05 0 0 1-8.35-9.88Zm4.64 21.72L7.9 55.59l.4-5.89v-.02l.08-1.18 5.34-.77c.3 1.84 3.13 19.9 3.8 24.21L9.82 61.38l.64-3.36c.1-.46-.12-.94-.52-1.18ZM36.3 75.18H21.51l4.98-6.84A1.13 1.13 0 1 0 24.65 67l-3.59 4.94c.55-3.58 1.39-9 2.33-14.97 1.43.95 3.08 1.6 4.86 1.83l.5 2.58-1.24 1.7a1.14 1.14 0 0 0 1.83 1.33l1.52-2.1c.19-.25.26-.57.2-.88l-.48-2.52h5.66c.04.38.06.76.06 1.15v15.12Zm10.52-31.54a4.92 4.92 0 1 1 0-9.84 4.92 4.92 0 0 1 0 9.84Z"/></svg>